<?xml version="1.0" encoding="utf-8"?>
<!-- Generator: Adobe Illustrator 22.0.1, SVG Export Plug-In . SVG Version: 6.00 Build 0)  -->
<svg version="1.1" id="Capa_1" xmlns="http://www.w3.org/2000/svg" xmlns:xlink="http://www.w3.org/1999/xlink" x="0px" y="0px"
	 viewBox="0 0 32 37" style="enable-background:new 0 0 32 37;" xml:space="preserve">
<style type="text/css">
	.st0{fill:#FFFFFF;}
	.st1{opacity:0.5;}
	.st2{fill:#0D86FF;}
	.st3{fill:#F6F6F6;}
	.st4{fill:none;stroke:#E2E2E2;stroke-miterlimit:10;}
	.st5{fill:#FFFFFF;stroke:#E2E2E2;stroke-miterlimit:10;}
	.st6{fill:#323233;}
	.st7{fill:#A5A4A4;}
	.st8{fill:none;}
</style>
<g>
	<g>
		<path class="st7" d="M22.7,5l-3.4,0c-3.8,0-6.3,2.5-6.3,6.4v3H9.7c-0.3,0-0.5,0.2-0.5,0.5v4.3c0,0.3,0.2,0.5,0.5,0.5h3.4v10.8
			c0,0.3,0.2,0.5,0.5,0.5H18c0.3,0,0.5-0.2,0.5-0.5V19.8h4c0.3,0,0.5-0.2,0.5-0.5l0-4.3c0-0.1-0.1-0.3-0.2-0.4
			c-0.1-0.1-0.2-0.2-0.4-0.2h-4v-2.5c0-1.2,0.3-1.8,1.9-1.8l2.3,0c0.3,0,0.5-0.2,0.5-0.5v-4C23.3,5.2,23,5,22.7,5z"/>
	</g>
	<rect class="st8" width="32" height="37"/>
</g>
</svg>
