<?xml version="1.0" encoding="utf-8"?>
<!-- Generator: Adobe Illustrator 22.0.1, SVG Export Plug-In . SVG Version: 6.00 Build 0)  -->
<svg version="1.1" id="Capa_1" xmlns="http://www.w3.org/2000/svg" xmlns:xlink="http://www.w3.org/1999/xlink" x="0px" y="0px"
	 viewBox="0 0 118 111" style="enable-background:new 0 0 118 111;" xml:space="preserve">
<style type="text/css">
	.st0{fill:#FFFFFF;}
	.st1{opacity:0.5;}
	.st2{fill:#0D86FF;}
	.st3{fill:#F6F6F6;}
	.st4{fill:none;stroke:#E2E2E2;stroke-miterlimit:10;}
	.st5{fill:#FFFFFF;stroke:#E2E2E2;stroke-miterlimit:10;}
	.st6{fill:#323233;}
	.st7{fill:#A5A4A4;}
	.st8{fill:none;}
</style>
<g>
	<g>
		<path class="st2" d="M71.1,19.5H42.9c-2.7,0-4.9,2.2-4.9,4.9v57.2c0,2.7,2.2,4.9,4.9,4.9h28.2c2.7,0,4.9-2.2,4.9-4.9V24.4
			C76,21.7,73.8,19.5,71.1,19.5z M40.2,28.4h33.5v42.5H40.2V28.4z M42.9,21.7h28.2c1.5,0,2.7,1.2,2.7,2.7v1.8H40.2v-1.8
			C40.2,22.9,41.4,21.7,42.9,21.7z M71.1,84.3H42.9c-1.5,0-2.7-1.2-2.7-2.7v-8.5h33.5v8.5C73.8,83.1,72.6,84.3,71.1,84.3z"/>
		<path class="st2" d="M57,74.2c-2.5,0-4.5,2-4.5,4.5s2,4.5,4.5,4.5s4.5-2,4.5-4.5S59.5,74.2,57,74.2z M57,80.9
			c-1.2,0-2.2-1-2.2-2.2s1-2.2,2.2-2.2s2.2,1,2.2,2.2S58.2,80.9,57,80.9z"/>
		<path class="st2" d="M52.5,25.1H57c0.6,0,1.1-0.5,1.1-1.1c0-0.6-0.5-1.1-1.1-1.1h-4.5c-0.6,0-1.1,0.5-1.1,1.1
			C51.4,24.6,51.9,25.1,52.5,25.1z"/>
		<path class="st2" d="M60.4,25.1h1.1c0.6,0,1.1-0.5,1.1-1.1c0-0.6-0.5-1.1-1.1-1.1h-1.1c-0.6,0-1.1,0.5-1.1,1.1
			C59.2,24.6,59.7,25.1,60.4,25.1z"/>
	</g>
	<rect class="st8" width="118" height="111"/>
</g>
</svg>
