<?xml version="1.0" encoding="utf-8"?>
<!-- Generator: Adobe Illustrator 22.0.1, SVG Export Plug-In . SVG Version: 6.00 Build 0)  -->
<svg version="1.1" id="Capa_1" xmlns="http://www.w3.org/2000/svg" xmlns:xlink="http://www.w3.org/1999/xlink" x="0px" y="0px"
	 viewBox="0 0 118 111" style="enable-background:new 0 0 118 111;" xml:space="preserve">
<style type="text/css">
	.st0{fill:#FFFFFF;}
	.st1{opacity:0.5;}
	.st2{fill:#0D86FF;}
	.st3{fill:#F6F6F6;}
	.st4{fill:none;stroke:#E2E2E2;stroke-miterlimit:10;}
	.st5{fill:#FFFFFF;stroke:#E2E2E2;stroke-miterlimit:10;}
	.st6{fill:#323233;}
	.st7{fill:#A5A4A4;}
	.st8{fill:none;}
</style>
<g>
	<g>
		<g>
			<path class="st2" d="M99.7,73.4v-3.7V47.3V24.9c0-2-1.7-3.7-3.7-3.7H21.4c-2.1,0-3.7,1.7-3.7,3.7v22.4v22.4v3.7L8.3,84.6
				c0,3.1,2.5,5.6,5.6,5.6h89.5c3.1,0,5.6-2.5,5.6-5.6L99.7,73.4z M66.1,88.3H51.2c-0.5,0-0.9-0.4-0.9-0.9s0.4-0.9,0.9-0.9h14.9
				c0.5,0,0.9,0.4,0.9,0.9C67.1,87.9,66.6,88.3,66.1,88.3z M43.3,84.6l2.8-3.4h25l2.8,3.4H43.3z M94.4,66.8c0,1.8-1.5,3.3-3.3,3.3
				h-65c-1.8,0-3.3-1.5-3.3-3.3v-39c0-1.8,1.5-3.3,3.3-3.3h65c1.8,0,3.3,1.5,3.3,3.3V66.8z"/>
		</g>
	</g>
	<rect class="st8" width="118" height="111"/>
</g>
</svg>
