<?xml version="1.0" encoding="utf-8"?>
<!-- Generator: Adobe Illustrator 22.0.1, SVG Export Plug-In . SVG Version: 6.00 Build 0)  -->
<svg version="1.1" id="Capa_1" xmlns="http://www.w3.org/2000/svg" xmlns:xlink="http://www.w3.org/1999/xlink" x="0px" y="0px"
	 viewBox="0 0 32 37" style="enable-background:new 0 0 32 37;" xml:space="preserve">
<style type="text/css">
	.st0{fill:#FFFFFF;}
	.st1{opacity:0.5;}
	.st2{fill:#0D86FF;}
	.st3{fill:#F6F6F6;}
	.st4{fill:none;stroke:#E2E2E2;stroke-miterlimit:10;}
	.st5{fill:#FFFFFF;stroke:#E2E2E2;stroke-miterlimit:10;}
	.st6{fill:#323233;}
	.st7{fill:#A5A4A4;}
	.st8{fill:none;}
</style>
<g>
	<g>
		<g>
			<g>
				<path class="st7" d="M23.1,17.9h-9.3V21h5.7c-0.8,2.7-3.4,4.6-6.3,4.6c-3.7,0-6.6-3-6.6-6.6c0-3.7,3-6.6,6.6-6.6
					c1.8,0,3.5,0.8,4.7,2l2.2-2.4c-1.8-1.8-4.3-2.8-7-2.8c-5.5,0-10,4.5-10,10s4.5,10,10,10c4.8,0,9-3.4,10-8L23.1,17.9L23.1,17.9
					L23.1,17.9z"/>
				<polygon class="st7" points="29.2,17.8 27.3,17.8 27.3,15.9 25.6,15.9 25.6,17.8 23.7,17.8 23.7,19.5 25.6,19.5 25.6,21.4 
					27.3,21.4 27.3,19.5 29.2,19.5 				"/>
			</g>
		</g>
	</g>
	<rect class="st8" width="32" height="37"/>
</g>
</svg>
