<?xml version="1.0" encoding="utf-8"?>
<!-- Generator: Adobe Illustrator 22.0.1, SVG Export Plug-In . SVG Version: 6.00 Build 0)  -->
<svg version="1.1" id="Capa_1" xmlns="http://www.w3.org/2000/svg" xmlns:xlink="http://www.w3.org/1999/xlink" x="0px" y="0px"
	 viewBox="0 0 32 37" style="enable-background:new 0 0 32 37;" xml:space="preserve">
<style type="text/css">
	.st0{fill:#FFFFFF;}
	.st1{opacity:0.5;}
	.st2{fill:#0D86FF;}
	.st3{fill:#F6F6F6;}
	.st4{fill:none;stroke:#E2E2E2;stroke-miterlimit:10;}
	.st5{fill:#FFFFFF;stroke:#E2E2E2;stroke-miterlimit:10;}
	.st6{fill:#323233;}
	.st7{fill:#A5A4A4;}
	.st8{fill:none;}
</style>
<g>
	<g id="XMLID_1_">
		<path id="XMLID_2_" class="st7" d="M29.4,10.5c-0.4,0.2-0.8,0.3-1.3,0.5c0.5-0.6,0.9-1.3,1.1-2c0.1-0.2,0-0.4-0.1-0.5
			c-0.1-0.1-0.3-0.1-0.5,0c-0.9,0.5-1.9,0.9-3,1.2c-1.1-1-2.5-1.6-4-1.6c-3.1,0-5.7,2.5-5.7,5.7c0,0.2,0,0.5,0,0.7
			c-3.9-0.3-7.5-2.2-9.9-5.3C6.1,9,6,8.9,5.9,9C5.7,9,5.6,9,5.5,9.2C5,10,4.8,11,4.8,12c0,1.4,0.5,2.7,1.3,3.7
			c-0.3-0.1-0.5-0.2-0.8-0.3c-0.1-0.1-0.3-0.1-0.4,0c-0.1,0.1-0.2,0.2-0.2,0.4c0,0,0,0.1,0,0.1c0,2,1.1,3.9,2.8,4.9
			c-0.1,0-0.3,0-0.4-0.1c-0.1,0-0.3,0-0.4,0.1c-0.1,0.1-0.1,0.3-0.1,0.4c0.6,1.9,2.2,3.4,4.1,3.8c-1.6,1-3.4,1.5-5.3,1.5
			c-0.4,0-0.8,0-1.2-0.1c-0.2,0-0.4,0.1-0.4,0.3c-0.1,0.2,0,0.4,0.2,0.5c2.5,1.6,5.3,2.4,8.2,2.4c5.8,0,9.4-2.7,11.4-5
			c2.5-2.8,3.9-6.6,3.9-10.3c0-0.2,0-0.3,0-0.5c1-0.7,1.8-1.6,2.5-2.7c0.1-0.2,0.1-0.4,0-0.5C29.8,10.5,29.6,10.4,29.4,10.5z"/>
	</g>
	<rect class="st8" width="32" height="37"/>
</g>
</svg>
