<?xml version="1.0" encoding="utf-8"?>
<!-- Generator: Adobe Illustrator 22.0.1, SVG Export Plug-In . SVG Version: 6.00 Build 0)  -->
<svg version="1.1" id="Capa_1" xmlns="http://www.w3.org/2000/svg" xmlns:xlink="http://www.w3.org/1999/xlink" x="0px" y="0px"
	 viewBox="0 0 118 111" style="enable-background:new 0 0 118 111;" xml:space="preserve">
<style type="text/css">
	.st0{fill:#FFFFFF;}
	.st1{opacity:0.5;}
	.st2{fill:#0D86FF;}
	.st3{fill:#F6F6F6;}
	.st4{fill:none;stroke:#E2E2E2;stroke-miterlimit:10;}
	.st5{fill:#FFFFFF;stroke:#E2E2E2;stroke-miterlimit:10;}
	.st6{fill:#323233;}
	.st7{fill:#A5A4A4;}
	.st8{fill:none;}
</style>
<g>
	<g>
		<path class="st2" d="M80.4,20H37.5c-2.7,0-4.9,2.2-4.9,4.9v62.2c0,2.7,2.2,4.9,4.9,4.9h42.9c2.7,0,4.9-2.2,4.9-4.9V24.9
			C85.3,22.2,83.1,20,80.4,20z M59,90.2c-1.6,0-2.9-1.3-2.9-2.9c0-1.6,1.3-2.9,2.9-2.9c1.6,0,2.9,1.3,2.9,2.9
			C61.9,88.9,60.6,90.2,59,90.2z M80.4,81.8H37.6V25.9h42.8V81.8z"/>
	</g>
	<rect class="st8" width="118" height="111"/>
</g>
</svg>
