<?xml version="1.0" encoding="utf-8"?>
<!-- Generator: Adobe Illustrator 22.0.1, SVG Export Plug-In . SVG Version: 6.00 Build 0)  -->
<svg version="1.1" id="Capa_1" xmlns="http://www.w3.org/2000/svg" xmlns:xlink="http://www.w3.org/1999/xlink" x="0px" y="0px"
	 viewBox="0 0 118 111" style="enable-background:new 0 0 118 111;" xml:space="preserve">
<style type="text/css">
	.st0{fill:#FFFFFF;}
	.st1{opacity:0.5;}
	.st2{fill:#0D86FF;}
	.st3{fill:#F6F6F6;}
	.st4{fill:none;stroke:#E2E2E2;stroke-miterlimit:10;}
	.st5{fill:#FFFFFF;stroke:#E2E2E2;stroke-miterlimit:10;}
	.st6{fill:#323233;}
	.st7{fill:#A5A4A4;}
	.st8{fill:none;}
</style>
<g>
	<g>
		<g>
			<g>
				<path class="st2" d="M98.3,11.7H25.7c-2.9,0-5.2,2.3-5.2,5.2v54.7c0,2.9,2.3,5.2,5.2,5.2h20.5c1.5,2,4.6,6.7,3.5,9
					c-0.4,0.9-1.6,1.4-3.5,1.4c-10.3,0-10.6,3.7-10.6,4.1V96h52.8v-6.3l-0.3-0.2c-0.1-0.1-3.2-2.4-10.8-2.4c-1.7,0-2-0.7-2.1-0.9
					c-1-1.9,1.6-6.7,3.6-9.5h19.5c2.9,0,5.2-2.3,5.2-5.2V16.9C103.5,14.1,101.1,11.7,98.3,11.7z M73.9,86.9c0.6,1.1,1.7,1.7,3.4,1.7
					c5.8,0,8.7,1.4,9.6,1.9v4H37l0-3.3c0.1-0.7,1.9-2.6,9.1-2.6c2.5,0,4.2-0.7,4.9-2.2c1.4-2.8-1.4-7.4-3-9.6h29
					C75.5,79.2,72.5,84.3,73.9,86.9z M59.5,71.4c0-1.3,1.1-2.4,2.4-2.4c1.3,0,2.4,1.1,2.4,2.4c0,1.3-1.1,2.4-2.4,2.4
					C60.6,73.8,59.5,72.7,59.5,71.4z M99,65.8H24.9V17.1H99L99,65.8L99,65.8z"/>
			</g>
		</g>
	</g>
	<rect class="st8" width="118" height="111"/>
</g>
</svg>
